<svg id="Layer_1" enable-background="new 0 0 510.916 510.916" height="512" viewBox="0 0 510.916 510.916" width="512" xmlns="http://www.w3.org/2000/svg"><g><path d="m509.339 255.906-1.468-11.81-11.834-1.257c-1.563-.166-15.219-1.516-35.487-.598-17.698-96.857-97.618-162.418-101.172-165.29l-9.427-7.615c-8.89 7.202-10.983 8.702-17.305 14.481-31.657-46.647-66.155-74.874-67.762-76.174l-9.43-7.643-9.44 7.627c-1.603 1.295-36.041 29.388-67.784 76.188-6.408-5.857-8.313-7.195-17.301-14.478l-9.427 7.615c-3.555 2.872-83.477 68.438-101.174 165.3-20.395-.938-34.148.422-35.717.588l-12.016 1.276-1.311 12.011c-.194 1.776-4.588 44.056 9.433 93.882 18.719 66.523 61.555 115.154 124.872 140.133l.001-.002c34 13.785 74.321 20.776 119.849 20.776l.001-.001c45.48 0 85.751-6.826 119.701-20.288l.001.002c62.166-23.522 107.068-71.759 125.805-140.338 13.673-50.052 8.614-92.598 8.392-94.385zm-159.39-147.126c20.333 19.375 67.475 70.265 80.583 136.271-33.296 4.752-74.051 16.209-109.393 42.494-19.65-26.188-38.681-44.893-49.021-54.318 15.94-60.214 58.724-106.25 77.831-124.447zm-94.51-69.424c12.433 11.639 35.12 34.832 55.655 66.219-17.81 19.694-40.002 48.734-55.654 84.647-15.652-35.915-37.845-64.955-55.656-84.65 20.534-31.383 43.228-54.58 55.655-66.216zm-94.509 69.424c19.113 18.203 61.881 64.226 77.824 124.417-10.36 9.396-29.479 28.11-49.203 54.379-35.271-26.248-75.942-37.719-109.209-42.491 13.101-66.027 60.26-116.935 80.588-136.305zm-121.066 234.048c-8.325-29.096-9.515-55.756-9.336-70.767 27.129-.477 92.154 2.76 141.942 40.202-26.776 42.186-44.837 89.633-46.731 140.351-42.683-22.822-71.531-59.651-85.875-109.786zm315.39 123.189c-28.573 9.89-62.098 14.898-99.816 14.899-37.724 0-71.248-5.127-99.825-15.255-1.094-49.54 15.679-99.621 49.934-149.008 18.844-27.168 38.479-47.278 49.865-57.985 11.407 10.776 31.113 31.036 50.001 58.346 34.258 49.536 51.001 99.611 49.841 149.003zm116.752-123.632c-13.898 50.869-43.075 88.075-86.855 110.899-1.783-50.611-19.775-98.3-46.933-141.054 49.927-37.523 115.139-40.67 142.126-40.166.411 14.802-.379 41.185-8.338 70.321z"/></g></svg>