<?xml version="1.0" encoding="utf-8"?>
<!-- Generator: Adobe Illustrator 22.0.1, SVG Export Plug-In . SVG Version: 6.00 Build 0)  -->
<svg version="1.1" id="Camada_1" xmlns="http://www.w3.org/2000/svg" xmlns:xlink="http://www.w3.org/1999/xlink" x="0px" y="0px"
	 viewBox="0 0 37.1 37.6" style="enable-background:new 0 0 37.1 37.6;" xml:space="preserve">
<style type="text/css">
	.st0{fill:#020203;}
	.st1{font-family:'Montserrat-SemiBold';}
	.st2{font-size:15.2787px;}
	.st3{font-size:11.3686px;}
</style>
<text transform="matrix(1 0 0 1 4.5333 24.0037)" class="st0 st1 st2">C0</text>
<text transform="matrix(1 0 0 1 26.1353 28.1423)" class="st0 st1 st3">2</text>
<g>
	<path class="st0" d="M2.9,1.5c1.1,0,1.9,0.9,1.9,1.9S3.9,5.3,2.9,5.3S1,4.4,1,3.4S1.8,1.5,2.9,1.5 M2.9,0C1,0-0.6,1.6-0.6,3.5
		S1,7,2.9,7s3.5-1.6,3.5-3.5S4.8,0,2.9,0L2.9,0z"/>
	<path class="st0" d="M14.9,4c1.7,0,3.3,0.8,4.4,2.2c0.3,0.3,0.6,0.6,1.1,0.6c0.1,0,0.1,0,0.2,0c0.4,0,0.7-0.1,1-0.4
		c1.5-1.2,3.4-1.9,5.3-1.9c4.7,0,8.5,3.9,8.5,8.6c0,2-0.7,4-2,5.5c-0.5,0.6-0.5,1.5,0.1,2.1c1.6,1.8,2.6,4,2.6,6.4
		c0,2.5-1,4.8-2.7,6.6c-1.7,1.8-4,2.7-6.4,2.7c-3,0-6-1.7-7.6-4.3c-0.3-0.4-0.7-0.7-1.3-0.7H18c-0.5,0-0.9,0.2-1.2,0.6
		c-1.3,1.6-3.2,2.6-5.2,2.6c-3.7,0-6.7-3.1-6.7-6.8c0-0.8,0.2-1.7,0.5-2.5c0.3-0.7,0-1.5-0.7-1.9c-0.9-0.5-1.6-1.2-2.2-2.1
		c-0.8-1.1-1.2-2.5-1.2-3.9c0-3.8,3-6.8,6.8-6.8h0.1l0,0c0.8,0,1.5-0.6,1.6-1.5C9.6,6.3,12,4,14.9,4 M14.9,2.4
		c-3.7,0-6.8,2.9-7.1,6.7H7.7c-4.6,0-8.3,3.8-8.3,8.4c0,1.7,0.5,3.3,1.5,4.8c0.7,1,1.6,1.9,2.7,2.5c-0.4,1-0.6,2-0.6,3
		c0,4.6,3.7,8.4,8.3,8.4c2.6,0,5-1.2,6.5-3.2c1.9,3.1,5.3,5.1,9,5.1c2.8,0,5.5-1.1,7.6-3.2c2-2.1,3.1-4.8,3.1-7.7
		c0-2.8-1.1-5.4-3-7.4c1.5-1.8,2.3-4.1,2.3-6.5c0-5.6-4.5-10.2-10-10.2c-2.3,0-4.5,0.8-6.3,2.2C19.2,3.5,17.1,2.4,14.9,2.4L14.9,2.4
		z"/>
</g>
</svg>
