<?xml version="1.0" encoding="utf-8"?>
<!-- Generator: Adobe Illustrator 22.0.1, SVG Export Plug-In . SVG Version: 6.00 Build 0)  -->
<svg version="1.1" id="Camada_1" xmlns="http://www.w3.org/2000/svg" xmlns:xlink="http://www.w3.org/1999/xlink" x="0px" y="0px"
	 viewBox="0 0 40.5 28.2" style="enable-background:new 0 0 40.5 28.2;" xml:space="preserve">
<style type="text/css">
	.st0{fill:#020203;}
	.st1{font-family:'Montserrat-SemiBold';}
	.st2{font-size:16.4858px;}
	.st3{font-size:12.2667px;}
</style>
<g>
	<path class="st0" d="M15.9,1.5c3.4,0,6.7,1.6,8.8,4.3c0.3,0.3,0.7,0.5,1.1,0.5c0.1,0,0.2,0,0.3,0c0.5-0.1,0.9-0.2,1.3-0.2
		c2.9,0,5.5,1.9,6.3,4.7c0.1,0.4,0.4,0.7,0.7,0.8c2.6,1.4,4.3,4.1,4.3,6.9c0,2.1-0.8,4-2.3,5.5s-3.5,2.3-5.6,2.3H10.1
		C8,26.3,6,25.5,4.5,24s-2.3-3.4-2.3-5.5c0-1.8,0.7-3.6,2.1-5.1c0.2-0.2,0.3-0.6,0.4-0.9c0.1-3,1.3-5.8,3.4-7.9
		C10.2,2.7,13,1.5,15.9,1.5 M15.9,0.1C9,0.1,3.4,5.6,3.2,12.6c-1.5,1.7-2.4,3.8-2.4,6.1c0,5.1,4.2,9.2,9.3,9.2h20.8
		c5.1,0,9.3-4.1,9.3-9.2c0-3.4-2-6.6-5.1-8.2c-1-3.4-4.1-5.7-7.7-5.7c-0.5,0-1.1,0.1-1.6,0.2C23.4,2,19.8,0.1,15.9,0.1L15.9,0.1z"/>
</g>
<text transform="matrix(1 0 0 1 10.7415 18.78)" class="st0 st1 st2">0</text>
<text transform="matrix(1 0 0 1 21.7767 23.2448)" class="st0 st1 st3">2</text>
</svg>
