<?xml version="1.0" encoding="utf-8"?>
<!-- Generator: Adobe Illustrator 22.0.1, SVG Export Plug-In . SVG Version: 6.00 Build 0)  -->
<svg version="1.1" id="Camada_1" xmlns="http://www.w3.org/2000/svg" xmlns:xlink="http://www.w3.org/1999/xlink" x="0px" y="0px"
	 viewBox="0 0 254.3 110.1" style="enable-background:new 0 0 254.3 110.1;" xml:space="preserve">
<style type="text/css">
	.st0{fill:#FFEC00;}
	.st1{fill:#FFD517;}
	.st2{fill:#305AE0;}
	.st3{fill:#FFFFFF;}
	.st4{fill:#13245A;}
</style>
<path class="st0" d="M105.8,55.7c0,0.7,0,1.5-0.1,2.2c-1.1,26.6-23.1,47.8-49.9,47.8c-27.6,0-50-22.4-50-50c0-0.9,0-1.8,0.1-2.7
	c2.9,1.9,5.9,3.7,9.6,5c0.5,0.2,1,0.3,1.5,0.5s1,0.3,1.5,0.4c3.2,0.9,7,1.4,11.5,1.4c15.8,0,22.5-6.5,30.6-11.9
	c5.9-4,12.6-7.4,24.2-7.4c2.1,0,4,0.1,5.8,0.3c0.6,0.1,1.1,0.1,1.6,0.2c0.6,0.1,1.1,0.2,1.6,0.3c4.4,0.9,7.9,2.3,11.1,4.1
	C105.5,49,105.8,52.3,105.8,55.7z"/>
<path class="st1" d="M105.8,57.9c-1.1,26.6-23.1,47.8-49.9,47.8c-27.6,0-50-22.4-50-50c0-0.9,0-1.8,0.1-2.7
	c-0.1-0.1-0.2-0.1-0.2-0.2c0.1-0.1,0.2-0.1,0.3-0.2c3.5-2.4,6.8-5,10.8-7.1c0.6-0.3,1.1-0.6,1.7-0.9s1.1-0.5,1.7-0.8
	c4.3-1.8,9.4-3,16.1-3c11.6,0,18.3,3.4,24.2,7.4c8.1,5.5,14.8,11.9,30.6,11.9c0.7,0,1.3,0,2,0c0.5,0,1,0,1.4-0.1
	c0.5,0,1-0.1,1.4-0.1C99.8,59.7,102.9,58.9,105.8,57.9z"/>
<g>
	<path class="st2" d="M104.8,45.8C100.2,23,80,5.7,55.8,5.7C29.3,5.7,7.5,26.5,5.9,52.6c0,0.1,0,0.2,0,0.3c-0.1,0.9-0.1,1.8-0.1,2.7
		c0,27.6,22.4,50,50,50c26.8,0,48.8-21.3,49.9-47.8c0-0.7,0.1-1.5,0.1-2.2C105.8,52.3,105.5,49,104.8,45.8z M94.6,60.2
		c-2.2,19.4-18.7,34.5-38.7,34.5c-20.6,0-37.5-16-38.9-36.2c-0.1-0.9-0.1-1.8-0.1-2.7c0-3.8,0.6-7.6,1.6-11.1
		c4.8-16.1,19.7-27.9,37.4-27.9c16.5,0,30.6,10.3,36.3,24.7c1.7,4.4,2.7,9.2,2.7,14.3C94.8,57.2,94.7,58.7,94.6,60.2z"/>
	<path class="st3" d="M93.7,41.7C88,26.3,73.2,15.3,55.8,15.3c-18.8,0-34.6,12.8-39.1,30.2c-0.8,3.3-1.3,6.7-1.3,10.2
		c0,0.8,0,1.5,0.1,2.3c1.2,21.3,18.8,38.1,40.3,38.1c20.9,0,38-15.8,40.2-36.1c0.2-1.4,0.2-2.9,0.2-4.3
		C96.2,50.8,95.4,46.1,93.7,41.7z M93.1,60.2C90.9,78.8,75,93.3,55.8,93.3c-19.6,0-35.8-15.2-37.4-34.4c-0.1-1-0.1-2.1-0.1-3.2
		c0-4.1,0.7-8.1,1.9-11.9c5-14.9,19.1-25.7,35.6-25.7c15.6,0,29,9.5,34.7,23.1c1.9,4.5,2.9,9.4,2.9,14.5
		C93.4,57.3,93.3,58.8,93.1,60.2z"/>
</g>
<path class="st4" d="M144,46.9c0,2.6-0.9,4.7-2.8,6.4c-1.8,1.7-4.1,2.5-6.8,2.5h-13V25.2h12.1c2.6,0,4.8,0.8,6.6,2.4
	s2.7,3.7,2.7,6.2s-1,4.6-2.9,6.1C142.7,41.4,144,43.8,144,46.9z M127.5,30.8v6.7h6c1.9,0,3.3-1.4,3.3-3.4s-1.4-3.4-3.3-3.4
	L127.5,30.8L127.5,30.8z M134.5,50.1c2.1,0,3.5-1.5,3.5-3.6s-1.5-3.6-3.5-3.6h-6.9v7.2C127.6,50.1,134.5,50.1,134.5,50.1z"/>
<path class="st4" d="M152.8,47.1c0.7,2.8,2.8,4.1,6.2,4.1c2.1,0,3.8-0.7,4.9-2.2l4.5,2.6c-2.1,3.1-5.3,4.7-9.5,4.7
	c-3.6,0-6.5-1.1-8.7-3.3s-3.3-4.9-3.3-8.3c0-3.3,1.1-6,3.2-8.2s4.9-3.3,8.3-3.3c3.2,0,5.9,1.1,7.9,3.3c2.1,2.2,3.1,4.9,3.1,8.2
	c0,0.7-0.1,1.5-0.2,2.3L152.8,47.1L152.8,47.1z M163.8,42.8c-0.7-3-2.8-4.4-5.4-4.4c-3,0-5.1,1.6-5.7,4.4H163.8z"/>
<path class="st4" d="M178,47.1c0.7,2.8,2.8,4.1,6.2,4.1c2.1,0,3.8-0.7,4.9-2.2l4.5,2.6c-2.1,3.1-5.3,4.7-9.5,4.7
	c-3.6,0-6.5-1.1-8.7-3.3s-3.3-4.9-3.3-8.3c0-3.3,1.1-6,3.2-8.2s4.9-3.3,8.3-3.3c3.2,0,5.9,1.1,7.9,3.3c2.1,2.2,3.1,4.9,3.1,8.2
	c0,0.7-0.1,1.5-0.2,2.3L178,47.1L178,47.1z M189,42.8c-0.7-3-2.8-4.4-5.4-4.4c-3,0-5.1,1.6-5.7,4.4H189z"/>
<path class="st4" d="M204.2,37.7c1-2.8,3.7-4.2,6.6-4.2v6.3c-1.7-0.2-3.3,0.1-4.6,1c-1.4,0.9-2,2.4-2,4.5v10.4h-5.6V33.9h5.6V37.7z"
	/>
<path class="st4" d="M124.6,88.2c-3-3.1-4.5-6.8-4.5-11.3s1.5-8.3,4.5-11.3c3-3.1,6.8-4.6,11.4-4.6c5.5,0,10.5,2.8,13.1,7.2l-5.2,3
	c-1.5-2.8-4.5-4.4-7.9-4.4c-3,0-5.4,0.9-7.2,2.8s-2.7,4.3-2.7,7.2c0,2.9,0.9,5.3,2.7,7.2c1.8,1.9,4.2,2.8,7.2,2.8
	c3.5,0,6.5-1.7,7.9-4.3l5.2,3c-2.6,4.4-7.6,7.2-13.1,7.2C131.4,92.8,127.6,91.2,124.6,88.2z"/>
<path class="st4" d="M171,72.1c1.6,1.6,2.4,3.8,2.4,6.6v13.4h-5.6V79.4c0-2.9-1.7-4.5-4.3-4.5c-2.9,0-4.8,1.8-4.8,5.4v11.8h-5.6
	V61.5h5.6v11.2c1.4-2.1,3.5-3.1,6.5-3.1C167.5,69.7,169.5,70.5,171,72.1z"/>
<path class="st4" d="M182.9,83.5c0.7,2.8,2.8,4.1,6.2,4.1c2.1,0,3.8-0.7,4.9-2.2l4.5,2.6c-2.1,3.1-5.3,4.7-9.5,4.7
	c-3.6,0-6.5-1.1-8.7-3.3s-3.3-4.9-3.3-8.3c0-3.3,1.1-6,3.2-8.2s4.9-3.3,8.3-3.3c3.2,0,5.9,1.1,7.9,3.3c2.1,2.2,3.1,4.9,3.1,8.2
	c0,0.7-0.1,1.5-0.2,2.3L182.9,83.5L182.9,83.5z M194,79.2c-0.7-3-2.8-4.4-5.4-4.4c-3,0-5.1,1.6-5.7,4.4H194z"/>
<path class="st4" d="M205.5,89.4c-2.2-2.2-3.3-4.9-3.3-8.2s1.1-6,3.3-8.2s5-3.3,8.3-3.3c4.2,0,8,2.2,9.8,5.6l-4.8,2.8
	c-0.9-1.8-2.8-2.9-5-2.9c-3.4,0-5.9,2.5-5.9,6c0,1.7,0.6,3.1,1.7,4.3c1.1,1.1,2.5,1.7,4.2,1.7c2.3,0,4.1-1.1,5-2.9l4.9,2.8
	c-1.9,3.4-5.6,5.7-9.9,5.7C210.5,92.8,207.7,91.7,205.5,89.4z"/>
<path class="st2" d="M226.6,85.2V69.7h5.6v7.6l9.3-11.7h6.7l-21.6,26.5V85.2z"/>
<polygon class="st4" points="237.8,81.3 234.6,85.2 240.2,92.1 246.7,92.1 "/>
</svg>
