<?xml version="1.0" standalone="no"?><svg xmlns="http://www.w3.org/2000/svg" viewBox="0 0 1440 320"><path fill="#FFD517" fill-opacity="1" d="M0,64L30,58.7C60,53,120,43,180,53.3C240,64,300,96,360,133.3C420,171,480,213,540,218.7C600,224,660,192,720,202.7C780,213,840,267,900,272C960,277,1020,235,1080,218.7C1140,203,1200,213,1260,197.3C1320,181,1380,139,1410,117.3L1440,96L1440,320L1410,320C1380,320,1320,320,1260,320C1200,320,1140,320,1080,320C1020,320,960,320,900,320C840,320,780,320,720,320C660,320,600,320,540,320C480,320,420,320,360,320C300,320,240,320,180,320C120,320,60,320,30,320L0,320Z"></path></svg>