<?xml version="1.0" encoding="utf-8"?>
<!-- Generator: Adobe Illustrator 22.0.1, SVG Export Plug-In . SVG Version: 6.00 Build 0)  -->
<svg version="1.1" id="Camada_1" xmlns="http://www.w3.org/2000/svg" xmlns:xlink="http://www.w3.org/1999/xlink" x="0px" y="0px"
	 viewBox="0 0 56.7 56.7" style="enable-background:new 0 0 56.7 56.7;" xml:space="preserve">
<style type="text/css">
	.st0{fill:#020203;}
</style>
<g>
	<path class="st0" d="M41,22.9l-7.3-5v-5.5h0.3c0.5,0,0.8-0.4,0.8-0.8s-0.4-0.8-0.8-0.8h-0.3V3.6c0-0.5-0.4-0.8-0.8-0.8h-3.2h-1.2
		h-0.1h-1.1h-3.4c-0.5,0-0.8,0.4-0.8,0.8v7.1h-0.3c-0.5,0-0.8,0.4-0.8,0.8s0.4,0.8,0.8,0.8H23v5.5l-7.3,5c-1.2,0.8-1.9,2.2-1.8,3.7
		l1.2,23c0.1,2.4,2.1,4.3,4.6,4.3H37c2.4,0,4.4-1.9,4.6-4.3l1.2-23C42.9,25.2,42.2,23.7,41,22.9z M24.7,4.4h2.6h1.1h0.1h1.2H32v6.3
		h-7.4V4.4z M16.7,24.3l7.6-5.3c0.2-0.2,0.4-0.4,0.4-0.7v-5.9H32v5.9c0,0.3,0.1,0.5,0.4,0.7l7.6,5.3c0.7,0.5,1.2,1.4,1.1,2.3
		L41.1,28H15.6l-0.1-1.4C15.5,25.6,15.9,24.8,16.7,24.3z M15.7,29.6H41l-0.9,17.8H16.6L15.7,29.6z M37,52.2H19.6
		c-1.5,0-2.8-1.2-2.9-2.8l0-0.4H40l0,0.4C39.9,51,38.6,52.2,37,52.2z"/>
	<polygon class="st0" points="24.8,34.8 23.3,34.8 21.8,37 20.4,34.8 18.8,34.8 20.9,37.9 18.7,41.2 20.2,41.2 21.8,38.8 23.3,41.2 
		24.9,41.2 22.7,37.9 	"/>
	<polygon class="st0" points="31.8,34.8 30.3,34.8 28.9,37 27.5,34.8 25.9,34.8 28,37.9 25.7,41.2 27.3,41.2 28.9,38.8 30.4,41.2 
		32,41.2 29.8,37.9 	"/>
	<polygon class="st0" points="36.9,37.9 38.9,34.8 37.4,34.8 35.9,37 34.5,34.8 33,34.8 35,37.9 32.8,41.2 34.3,41.2 35.9,38.8 
		37.5,41.2 39,41.2 	"/>
</g>
</svg>
