<?xml version="1.0" encoding="utf-8"?>
<!-- Generator: Adobe Illustrator 22.0.1, SVG Export Plug-In . SVG Version: 6.00 Build 0)  -->
<svg version="1.1" id="Camada_1" xmlns="http://www.w3.org/2000/svg" xmlns:xlink="http://www.w3.org/1999/xlink" x="0px" y="0px"
	 viewBox="0 0 254.3 110.1" style="enable-background:new 0 0 254.3 110.1;" xml:space="preserve">
<style type="text/css">
	.st0{fill:#305AE0;}
	.st1{fill:#FFEC00;}
	.st2{fill:#FFD517;}
	.st3{fill:#FFFFFF;}
</style>
<path class="st0" d="M95.7,47.1C92,28.6,75.6,14.7,56.1,14.7c-21.4,0-39,16.8-40.3,37.9c0,0.1,0,0.2,0,0.3c0,0.7-0.1,1.5-0.1,2.2
	c0,22.3,18.1,40.4,40.4,40.4c21.7,0,39.4-17.2,40.4-38.6c0-0.6,0-1.2,0-1.8C96.5,52.3,96.2,49.6,95.7,47.1z"/>
<path class="st1" d="M96.5,55.1c0,1.5-0.1,2.9-0.2,4.3C94.1,79.7,76.9,95.5,56,95.5c-21.5,0-39.2-16.9-40.3-38.1
	c0.5,0.2,1,0.3,1.5,0.5s1,0.3,1.5,0.4c3.2,0.9,7,1.4,11.5,1.4c15.9,0,22.5-6.5,30.7-11.9c5.9-4,12.6-7.4,24.2-7.4
	c2.1,0,4,0.1,5.8,0.3c0.5,0.1,1.1,0.1,1.6,0.2c0.6,0.1,1.1,0.2,1.6,0.3C95.6,45.4,96.5,50.1,96.5,55.1z"/>
<path class="st2" d="M96.2,59.4C94.1,79.7,76.9,95.5,56,95.5c-21.5,0-39.2-16.9-40.3-38.1c0-0.8-0.1-1.5-0.1-2.3
	c0-3.5,0.5-6.9,1.3-10.2c0.5-0.3,1.1-0.6,1.7-0.9c0.6-0.3,1.2-0.5,1.7-0.8c4.3-1.8,9.4-3,16.1-3c11.6,0,18.3,3.5,24.2,7.4
	c8.1,5.5,14.8,11.9,30.6,11.9c0.7,0,1.3,0,2,0c0.5,0,1,0,1.4-0.1C95.3,59.5,95.8,59.4,96.2,59.4z"/>
<path class="st3" d="M105,45.2C100.4,22.4,80.2,5.1,56,5.1C29.5,5.1,7.8,25.8,6.2,52c0,0.1,0,0.2,0,0.3c-0.1,0.9-0.1,1.8-0.1,2.7
	c0,27.6,22.4,50,50,50c26.8,0,48.8-21.3,49.9-47.8c0-0.7,0.1-1.5,0.1-2.2C106,51.7,105.7,48.3,105,45.2z M94.8,59.5
	C92.6,78.9,76,94,56.1,94c-20.6,0-37.5-16-38.9-36.2c-0.1-0.9-0.1-1.8-0.1-2.7c0-3.8,0.6-7.6,1.6-11.1c4.8-16.1,19.7-27.9,37.4-27.9
	c16.5,0,30.6,10.3,36.3,24.7C94.1,45.2,95,50,95,55.1C95,56.5,95,58,94.8,59.5z"/>
<path class="st0" d="M94,41.1c-5.7-15.5-20.5-26.5-38-26.5c-18.8,0-34.6,12.8-39.1,30.2c-0.9,3.3-1.3,6.7-1.3,10.2
	c0,0.8,0,1.5,0.1,2.3C16.9,78.6,34.5,95.5,56,95.5c20.9,0,38-15.8,40.2-36.1c0.2-1.4,0.2-2.9,0.2-4.3C96.5,50.1,95.6,45.4,94,41.1z
	 M56,92.6c-19.6,0-35.8-15.2-37.4-34.4c-0.1-1-0.1-2.1-0.1-3.2c0-4.1,0.7-8.1,1.9-11.9c5-14.9,19.1-25.7,35.6-25.7
	c15.6,0,29,9.5,34.7,23.1c1.9,4.5,2.9,9.4,2.9,14.5c0,1.5-0.1,3-0.3,4.5C91.1,78.1,75.2,92.6,56,92.6z"/>
<path class="st3" d="M144,46.2c0,2.6-0.9,4.7-2.8,6.4c-1.8,1.7-4.1,2.5-6.8,2.5h-13V24.5h12.1c2.6,0,4.8,0.8,6.6,2.4
	s2.7,3.7,2.7,6.2s-1,4.6-2.9,6.1C142.7,40.7,144,43.1,144,46.2z M127.5,30.1v6.7h6c1.9,0,3.3-1.4,3.3-3.4s-1.4-3.4-3.3-3.4h-6V30.1z
	 M134.5,49.4c2.1,0,3.5-1.5,3.5-3.6s-1.5-3.6-3.5-3.6h-6.9v7.2C127.6,49.4,134.5,49.4,134.5,49.4z"/>
<path class="st3" d="M152.8,46.4c0.7,2.8,2.8,4.1,6.2,4.1c2.1,0,3.8-0.7,4.9-2.2l4.5,2.6c-2.1,3.1-5.3,4.7-9.5,4.7
	c-3.6,0-6.5-1.1-8.7-3.3s-3.3-4.9-3.3-8.3c0-3.3,1.1-6,3.2-8.2c2.1-2.2,4.9-3.3,8.3-3.3c3.2,0,5.9,1.1,7.9,3.3
	c2.1,2.2,3.1,4.9,3.1,8.2c0,0.7-0.1,1.5-0.2,2.3h-16.4V46.4z M163.8,42.1c-0.7-3-2.8-4.4-5.4-4.4c-3,0-5.1,1.6-5.7,4.4H163.8z"/>
<path class="st3" d="M178,46.4c0.7,2.8,2.8,4.1,6.2,4.1c2.1,0,3.8-0.7,4.9-2.2l4.5,2.6c-2.1,3.1-5.3,4.7-9.5,4.7
	c-3.6,0-6.5-1.1-8.7-3.3s-3.3-4.9-3.3-8.3c0-3.3,1.1-6,3.2-8.2c2.1-2.2,4.9-3.3,8.3-3.3c3.2,0,5.9,1.1,7.9,3.3
	c2.1,2.2,3.1,4.9,3.1,8.2c0,0.7-0.1,1.5-0.2,2.3H178V46.4z M189,42.1c-0.7-3-2.8-4.4-5.4-4.4c-3,0-5.1,1.6-5.7,4.4H189z"/>
<path class="st3" d="M204.2,37c1-2.8,3.7-4.2,6.6-4.2v6.3c-1.7-0.2-3.3,0.1-4.6,1c-1.4,0.9-2,2.4-2,4.5V55h-5.6V33.2h5.6V37z"/>
<path class="st3" d="M124.6,87.5c-3-3.1-4.5-6.8-4.5-11.3s1.5-8.3,4.5-11.3c3-3.1,6.8-4.6,11.4-4.6c5.5,0,10.5,2.8,13.1,7.2l-5.2,3
	c-1.5-2.8-4.5-4.4-7.9-4.4c-3,0-5.4,0.9-7.2,2.8s-2.7,4.3-2.7,7.2c0,2.9,0.9,5.3,2.7,7.2c1.8,1.9,4.2,2.8,7.2,2.8
	c3.5,0,6.5-1.7,7.9-4.3l5.2,3c-2.6,4.4-7.6,7.2-13.1,7.2C131.4,92.1,127.6,90.5,124.6,87.5z"/>
<path class="st3" d="M171,71.4c1.6,1.6,2.4,3.8,2.4,6.6v13.4h-5.6V78.7c0-2.9-1.7-4.5-4.3-4.5c-2.9,0-4.8,1.8-4.8,5.4v11.8H153V60.9
	h5.6v11.2c1.4-2.1,3.5-3.1,6.5-3.1C167.5,69,169.5,69.8,171,71.4z"/>
<path class="st3" d="M182.9,82.9c0.7,2.8,2.8,4.1,6.2,4.1c2.1,0,3.8-0.7,4.9-2.2l4.5,2.6c-2.1,3.1-5.3,4.7-9.5,4.7
	c-3.6,0-6.5-1.1-8.7-3.3s-3.3-4.9-3.3-8.3c0-3.3,1.1-6,3.2-8.2c2.1-2.2,4.9-3.3,8.3-3.3c3.2,0,5.9,1.1,7.9,3.3
	c2.1,2.2,3.1,4.9,3.1,8.2c0,0.7-0.1,1.5-0.2,2.3h-16.4V82.9z M194,78.5c-0.7-3-2.8-4.4-5.4-4.4c-3,0-5.1,1.6-5.7,4.4H194z"/>
<path class="st3" d="M205.5,88.7c-2.2-2.2-3.3-4.9-3.3-8.2s1.1-6,3.3-8.2s5-3.3,8.3-3.3c4.2,0,8,2.2,9.8,5.6l-4.8,2.8
	c-0.9-1.8-2.8-2.9-5-2.9c-3.4,0-5.9,2.5-5.9,6c0,1.7,0.6,3.1,1.7,4.3c1.1,1.1,2.5,1.7,4.2,1.7c2.3,0,4.1-1.1,5-2.9l4.9,2.8
	c-1.9,3.4-5.6,5.7-9.9,5.7C210.5,92.1,207.7,91,205.5,88.7z"/>
<path class="st2" d="M226.6,84.5V69h5.6v7.6l9.3-11.7h6.7l-21.6,26.5V84.5z"/>
<polygon class="st3" points="237.9,80.6 234.6,84.6 240.2,91.5 246.7,91.5 "/>
</svg>
